<svg width="25" height="25" viewBox="0 0 25 25" fill="none" xmlns="http://www.w3.org/2000/svg">
<g clip-path="url(#clip0_2128_2345)">
<path d="M10.9514 24.4469H9.8452C9.18148 24.4469 8.62839 23.8938 8.62839 23.2301V12.8318C8.07529 13.0531 7.52219 13.2743 6.96909 13.1637C5.19918 13.1637 3.53989 11.5044 3.20803 11.1725C3.09741 11.1725 3.09741 11.0619 3.09741 10.9513V7.41148C3.09741 7.30086 3.09741 7.19024 3.20803 7.07962C4.09299 5.97343 5.53104 5.19909 6.96909 5.08847C8.07529 4.97785 9.07086 5.42033 9.8452 6.08405C11.5045 7.5221 12.0576 11.5044 12.0576 12.1681C12.0576 12.8318 12.0576 19.2478 12.1682 22.3451V23.2301C12.1682 23.8938 11.6151 24.4469 10.9514 24.4469Z" stroke="#231F20" stroke-linecap="round" stroke-linejoin="round"/>
<path d="M16.2612 19.8008H15.155C14.4913 19.8008 13.9382 19.2477 13.9382 18.584C13.9382 15.376 13.9382 7.74327 14.1595 6.85831C15.8188 0.553002 18.9161 0.442383 19.0267 0.442383C19.3586 0.442383 22.1241 0.553002 22.1241 4.31406C22.1241 7.41141 20.5754 8.5176 19.248 8.5176C18.5842 8.40698 18.0312 8.18575 17.5887 7.74327V18.4734C17.4781 19.2477 16.925 19.8008 16.2612 19.8008Z" stroke="#231F20" stroke-linecap="round" stroke-linejoin="round"/>
<path d="M18.916 2.98657H19.2478C19.5797 2.98657 19.9115 3.31843 19.9115 3.65029V5.30958C19.9115 5.75206 19.5797 6.08392 19.1372 6.08392H18.8053C18.3629 6.08392 18.031 5.75206 18.031 5.30958V3.65029C18.1416 3.31843 18.4735 2.98657 18.916 2.98657Z" fill="#231F20"/>
</g>
<defs>
<clipPath id="clip0_2128_2345">
<rect width="25" height="25" fill="white"/>
</clipPath>
</defs>
</svg>
